<?xml version="1.0" standalone="no"?>
<!DOCTYPE svg PUBLIC "-//W3C//DTD SVG 1.1//EN" "http://www.w3.org/Graphics/SVG/1.1/DTD/svg11.dtd">
<svg width="64px" height="64px" version="1.1" xmlns="http://www.w3.org/2000/svg" xmlns:xlink="http://www.w3.org/1999/xlink" xml:space="preserve" style="fill-rule:evenodd;clip-rule:evenodd;stroke-linejoin:round;stroke-miterlimit:1.41421;">
    <g id="Capa_1">
        <path d="M46.067,30.127C48.42,30.127 50.336,28.212 50.336,25.857C50.337,23.503 48.421,21.587 46.067,21.587C43.712,21.587 41.796,23.503 41.796,25.857C41.796,28.211 43.712,30.127 46.067,30.127ZM46.067,22.314C48.021,22.314 49.611,23.903 49.611,25.857C49.611,27.811 48.021,29.4 46.067,29.4C44.112,29.4 42.524,27.811 42.524,25.857C42.524,23.903 44.112,22.314 46.067,22.314ZM43.537,34.728C43.537,36.124 44.673,37.259 46.068,37.259C47.463,37.259 48.598,36.124 48.598,34.728C48.599,33.334 47.464,32.198 46.068,32.198C44.672,32.198 43.537,33.334 43.537,34.728ZM47.939,34.729C47.939,35.76 47.1,36.6 46.068,36.6C45.037,36.6 44.197,35.76 44.197,34.729C44.197,33.698 45.037,32.858 46.068,32.858C47.099,32.858 47.939,33.697 47.939,34.729ZM46.067,27.765C47.118,27.765 47.975,26.909 47.975,25.857C47.976,24.805 47.118,23.949 46.067,23.949C45.015,23.949 44.16,24.805 44.16,25.857C44.16,26.909 45.015,27.765 46.067,27.765ZM46.067,24.313C46.918,24.313 47.612,25.006 47.612,25.857C47.612,26.709 46.919,27.402 46.067,27.402C45.215,27.402 44.522,26.709 44.522,25.857C44.522,25.006 45.215,24.313 46.067,24.313ZM50.946,45.119L10.946,45.119C9.981,45.119 9.196,45.904 9.196,46.869L9.196,50.203C9.196,51.168 9.981,51.953 10.946,51.953L50.946,51.953C51.911,51.953 52.696,51.168 52.696,50.203L52.696,46.869C52.696,45.904 51.911,45.119 50.946,45.119ZM51.196,50.203C51.196,50.342 51.084,50.453 50.946,50.453L10.946,50.453C10.808,50.453 10.696,50.342 10.696,50.203L10.696,46.869C10.696,46.732 10.808,46.619 10.946,46.619L50.946,46.619C51.084,46.619 51.196,46.732 51.196,46.869ZM60.866,13.279L57.936,13.279L57.936,11.871C57.936,11.069 57.284,10.417 56.482,10.417L52.725,10.41C52.671,9.704 52.042,9.146 51.276,9.146L51.002,9.146L51.002,7.511C51.002,6.709 50.351,6.057 49.549,6.057L48.695,6.057C47.892,6.057 47.241,6.709 47.241,7.511L47.241,9.147C47.241,9.151 47.241,9.156 47.24,9.161C46.652,9.251 46.194,9.775 46.153,10.419C46.153,10.419 46.151,10.418 46.15,10.418L23.312,10.418L23.312,8.873C23.312,7.908 22.527,7.123 21.562,7.123L12.095,7.123C11.13,7.123 10.345,7.908 10.345,8.873L10.345,10.418L7.732,10.418C6.929,10.418 6.278,11.07 6.278,11.872L6.278,33.01C6.278,33.813 6.929,34.463 7.732,34.463L8.185,34.463C8.22,34.463 8.275,34.512 8.279,34.547L8.339,35.031C8.432,35.793 9.107,36.392 9.876,36.392L10.065,36.392L10.065,39.246C10.065,39.648 10.39,39.973 10.792,39.973C11.193,39.973 11.519,39.649 11.519,39.246L11.519,36.392L12.169,36.392C12.935,36.392 13.612,35.796 13.71,35.038L13.772,34.558C13.776,34.521 13.834,34.47 13.872,34.47L13.993,34.47C14.737,34.47 15.425,33.923 15.593,33.2L17.815,23.645C17.83,23.582 17.934,23.499 17.998,23.499L35.44,23.499C35.717,23.499 36.086,23.616 36.182,23.686C36.239,23.739 36.347,23.969 36.347,24.166L36.347,41.67L2.735,41.67C1.933,41.67 1.281,42.324 1.281,43.125L1.281,48.879C1.281,49.68 1.933,50.334 2.735,50.334L4.067,50.334C4.24,50.334 4.545,50.484 4.648,50.623L7.411,54.305C7.789,54.813 8.523,55.178 9.156,55.178L52.763,55.178C53.381,55.178 54.117,54.834 54.515,54.36L60.367,47.358C60.736,46.917 61.001,46.178 60.996,45.602L60.949,40.211C60.943,39.488 60.414,38.793 59.719,38.592L58.391,38.207C58.317,38.186 58.221,38.057 58.221,37.978L58.278,22.138L60.867,22.138C61.67,22.138 62.321,21.486 62.321,20.684L62.321,14.733C62.32,13.932 61.669,13.279 60.866,13.279ZM11.846,8.873C11.846,8.735 11.958,8.623 12.096,8.623L21.563,8.623C21.701,8.623 21.813,8.735 21.813,8.873L21.813,10.418L11.846,10.418ZM60.866,20.685L58.277,20.685C57.477,20.685 56.823,21.335 56.821,22.136L56.765,37.975C56.763,38.703 57.289,39.403 57.987,39.606L59.316,39.989C59.392,40.01 59.495,40.145 59.496,40.225L59.542,45.616C59.545,45.843 59.397,46.251 59.251,46.427L53.4,53.428C53.281,53.571 52.949,53.725 52.763,53.725L9.156,53.725C8.981,53.725 8.677,53.573 8.574,53.436L5.811,49.752C5.432,49.246 4.699,48.879 4.067,48.879L2.735,48.879L2.735,43.125L36.347,43.125C37.149,43.125 37.8,42.473 37.8,41.67L37.8,24.167C37.8,23.622 37.543,22.881 37.05,22.521C36.627,22.209 35.919,22.046 35.44,22.046L17.998,22.046C17.254,22.046 16.566,22.593 16.398,23.317L14.177,32.871C14.163,32.933 14.056,33.017 13.993,33.017L13.872,33.017C13.106,33.017 12.43,33.612 12.331,34.371L12.269,34.85C12.263,34.887 12.206,34.938 12.169,34.938L9.876,34.938C9.842,34.938 9.786,34.889 9.782,34.856L9.722,34.372C9.63,33.609 8.954,33.011 8.185,33.011L7.732,33.011L7.732,11.872L46.151,11.872C46.924,11.872 47.559,11.303 47.602,10.586C48.228,10.489 48.696,9.891 48.696,9.147L48.696,7.511L49.55,7.511L49.55,9.147C49.675,10.785 51.279,10.607 51.279,10.607C51.333,11.313 51.963,11.872 52.729,11.872L56.482,11.872L56.482,13.28C56.482,14.083 57.135,14.734 57.936,14.734L60.866,14.734Z" style="fill:#ffffff;fill-rule:nonzero;"/>
    </g>
</svg>
