<svg width="64" xmlns="http://www.w3.org/2000/svg" height="64" viewBox="0 0 64 64" xmlns:xlink="http://www.w3.org/1999/xlink" enable-background="new 0 0 64 64">
<path d="m25.943,48.035c-.553-.324-1.168-.49-1.829-.49-1.635,0-3.239,1.002-4.187,2.615-.653,1.113-.906,2.373-.715,3.549 .196,1.203 .833,2.176 1.792,2.738 .553,.324 1.168,.49 1.828,.49 1.637,0 3.24-1.002 4.187-2.615 .653-1.111 .907-2.373 .716-3.549-.196-1.203-.833-2.175-1.792-2.738zm.411,5.899c-.795,1.355-2.178,2.232-3.521,2.232-.521,0-1.006-.129-1.438-.383-.758-.445-1.263-1.225-1.421-2.197-.163-1 .057-2.078 .619-3.035 .796-1.357 2.179-2.234 3.521-2.234 .522,0 1.007,.127 1.439,.383 .758,.445 1.263,1.225 1.421,2.197 .164,.999-.056,2.078-.62,3.037z" style="fill:white;fill-rule:nonzero;" />
<path d="m39.776,47.545c-.661,0-1.276,.166-1.829,.49-.959,.562-1.596,1.535-1.792,2.738-.191,1.176 .062,2.438 .716,3.549 .946,1.613 2.55,2.613 4.186,2.615 .66,0 1.275-.166 1.828-.49 .959-.562 1.596-1.535 1.792-2.738 .191-1.176-.062-2.436-.715-3.549-.946-1.613-2.551-2.615-4.186-2.615zm4.141,6.041c-.158,.973-.663,1.752-1.421,2.197-.433,.254-.917,.383-1.439,.383-1.344,0-2.726-.877-3.521-2.232-.563-.959-.783-2.037-.62-3.037 .158-.973 .663-1.752 1.421-2.197 .433-.256 .917-.383 1.44-.383 1.343,0 2.726,.877 3.521,2.234 .562,.957 .782,2.035 .619,3.035z" style="fill:white;fill-rule:nonzero;" />
<path d="m30.863,34.781c-1.246,0-2.262,1.016-2.262,2.262 0,1.246 1.016,2.262 2.262,2.262 1.247,0 2.261-1.016 2.261-2.262 0-1.246-1.014-2.262-2.261-2.262zm0,3.393c-.624,0-1.131-.506-1.131-1.131 0-.623 .507-1.131 1.131-1.131 .623,0 1.131,.508 1.131,1.131 0,.625-.508,1.131-1.131,1.131z" style="fill:white;fill-rule:nonzero;" />
<path d="m37.594,38.396c.229,.51 .699,.826 1.227,.826 .317,0 .623-.113 .883-.328 14.986-12.392 6.99-32.293 5.235-36.156-.303-.666-.812-.738-1.018-.738-.436,0-.82,.287-1.025,.766l-9.981,23.229c-.254,.59-.246,1.443 .017,2.029l4.662,10.372zm-3.265-11.794l9.597-22.332c2.166,5.176 7.956,22.352-5.021,33.285l-4.568-10.162c-.087-.192-.091-.598-.008-.791z" style="fill:white;fill-rule:nonzero;" />
<path d="m47.162,49.283c-1.799-3.064-4.849-4.969-7.958-4.969-.038,0-.075,0-.112,0l-8.1-17.902-9.982-23.23c-.205-.479-.589-.764-1.026-.764-.205,0-.714,.07-1.017,.736-1.755,3.863-9.752,23.764 5.28,36.191 .088,.062 2.195,1.533 5.774,2.215 .212,.041 .546,.264 .65,.432l2.956,4.805 .112,.193c-2.108,2.635-2.157,6.654-.07,10.211 1.798,3.064 4.847,4.969 7.958,4.969 1.258,0 2.429-.314 3.481-.932 1.827-1.072 3.038-2.922 3.411-5.211 .367-2.234-.116-4.631-1.357-6.744zm-.161,6.496c-.299,1.828-1.247,3.295-2.672,4.131-.812,.477-1.721,.719-2.7,.719-2.528,0-5.13-1.652-6.629-4.207-1.856-3.162-1.76-6.703 .241-8.811l.396-.416-3.653-6.01c-.33-.537-1.034-1.016-1.674-1.139-3.201-.609-5.122-1.924-5.127-1.924 0,0 0,.002 .001,.002-13.207-10.921-7.386-28.218-5.204-33.436l9.603,22.346 8.004,17.652 .475,1.254 .587-.059c2.68-.262 5.574,1.435 7.186,4.182 1.059,1.804 1.473,3.835 1.166,5.716z" style="fill:white;fill-rule:nonzero;" />
<path d="m30.158,46.768l.489-.693c.42-.59 .462-1.504 .098-2.129l-.351-.6c-.322-.551-1.028-1.035-1.679-1.15-.424-.076-.833-.17-1.217-.277-.731-.205-1.6,.105-2.008,.717l-.905,1.381c-.066,.098-.118,.199-.157,.305-3.018,.094-5.95,1.982-7.7,4.963-1.241,2.113-1.724,4.51-1.358,6.744 .373,2.289 1.584,4.139 3.41,5.211 1.053,.617 2.224,.932 3.481,.932 3.111,0 6.16-1.904 7.958-4.969 2.052-3.494 1.917-7.66-.171-10.312 .037-.041 .078-.079 .11-.123zm-1.267,9.654c-1.499,2.555-4.101,4.207-6.629,4.207-.979,0-1.889-.242-2.701-.719-1.424-.836-2.372-2.303-2.671-4.131-.307-1.881 .108-3.912 1.167-5.717 1.5-2.557 4.102-4.207 6.628-4.207 .077,0 .153,0 .23,.004 .001,0 .003-.002 .004-.002 .08,.008 .175,.014 .289,.014l1.563-2.381c.026-.039 .136-.102 .311-.09 .432,.121 .89,.227 1.363,.311 .206,.037 .524,.248 .619,.412l.351,.6c.062,.105 .05,.357-.021,.457l-1.28,1.908c2.461,2 2.749,5.974 .777,9.334z" style="fill:white;fill-rule:nonzero;"/>
</svg>
