<?xml version="1.0" standalone="no"?>
<!DOCTYPE svg PUBLIC "-//W3C//DTD SVG 1.1//EN" "http://www.w3.org/Graphics/SVG/1.1/DTD/svg11.dtd">
<svg width="64px" height="64px" version="1.1" xmlns="http://www.w3.org/2000/svg" xmlns:xlink="http://www.w3.org/1999/xlink" xml:space="preserve" style="fill-rule:evenodd;clip-rule:evenodd;stroke-linejoin:round;stroke-miterlimit:1.41421;">
    <g id="Capa_1">
        <path d="M59.79,40.742C57.284,40.113 44.581,36.703 40.672,31.23C37.149,26.298 33.981,25.531 32.405,25.513L32.403,25.513L32.403,23.657C32.403,22.968 31.88,22.37 31.159,22.237C29.712,21.971 28.662,20.706 28.662,19.231C28.662,17.547 30.032,16.176 31.718,16.176C33.403,16.176 34.774,17.547 34.774,19.231C34.774,19.61 35.081,19.917 35.461,19.917C35.84,19.917 36.146,19.61 36.146,19.231C36.146,16.792 34.161,14.805 31.719,14.805C29.278,14.805 27.291,16.791 27.291,19.231C27.291,21.368 28.814,23.2 30.913,23.584C30.985,23.598 31.028,23.643 31.032,23.656L31.032,25.512C31.032,25.512 31.031,25.512 31.029,25.512C29.455,25.53 26.286,26.297 22.763,31.229C18.853,36.703 6.113,40.115 3.6,40.742C2.923,40.912 2.415,41.56 2.415,42.254L2.415,49.451C2.415,50.105 2.854,50.58 3.459,50.58C3.647,50.58 3.837,50.531 4.021,50.437L10.773,47.013C10.853,47.031 10.932,47.051 11.02,47.051L17.675,47.051C17.641,47.152 17.612,47.254 17.612,47.365L17.612,47.934C17.612,48.488 18.059,48.934 18.612,48.934L23.445,48.934C23.998,48.934 24.445,48.488 24.445,47.934L24.445,47.365C24.445,47.254 24.416,47.149 24.382,47.051L36.842,47.051C36.809,47.152 36.778,47.254 36.778,47.365L36.778,47.934C36.778,48.488 37.225,48.934 37.778,48.934L42.612,48.934C43.165,48.934 43.612,48.488 43.612,47.934L43.612,47.365C43.612,47.254 43.583,47.149 43.549,47.051L52.494,47.051C52.518,47.051 52.541,47.041 52.565,47.039L59.373,50.44C59.558,50.533 59.743,50.578 59.931,50.578C60.537,50.578 60.978,50.102 60.978,49.449L60.978,42.252C60.977,41.562 60.467,40.912 59.79,40.742ZM13.4,45.682L31.186,36.665C31.288,36.616 31.696,36.611 31.794,36.663L49.843,45.682ZM59.604,49.027L32.408,35.436C32.081,35.272 31.73,35.237 31.495,35.237C31.156,35.237 30.826,35.311 30.568,35.442L3.784,49.043L3.784,42.254C3.784,42.192 3.868,42.088 3.93,42.072C7.578,41.162 19.795,37.742 23.877,32.027C27.167,27.422 29.985,26.896 31.043,26.884C31.156,26.882 31.292,26.882 31.436,26.882C31.522,26.921 31.616,26.944 31.717,26.944C31.818,26.944 31.911,26.921 31.997,26.882C32.14,26.882 32.276,26.882 32.39,26.884C33.449,26.896 36.265,27.421 39.557,32.027C43.639,37.744 55.821,41.16 59.456,42.07C59.518,42.088 59.603,42.191 59.603,42.254L59.603,49.027Z" style="fill:white;fill-rule:nonzero;"/>
    </g>
</svg>
