<?xml version="1.0" standalone="no"?>
<!DOCTYPE svg PUBLIC "-//W3C//DTD SVG 1.1//EN" "http://www.w3.org/Graphics/SVG/1.1/DTD/svg11.dtd">
<svg width="64px" height="64px" version="1.1" xmlns="http://www.w3.org/2000/svg" xmlns:xlink="http://www.w3.org/1999/xlink" xml:space="preserve" style="fill-rule:evenodd;clip-rule:evenodd;stroke-linejoin:round;stroke-miterlimit:1.41421;">
    <g>
        <path d="M37.393,24.4L42.309,24.4C42.673,24.4 42.969,24.105 42.969,23.741L42.969,22.313C42.969,21.586 42.377,20.994 41.65,20.994L38.051,20.994C37.324,20.994 36.733,21.586 36.733,22.313L36.733,23.741C36.732,24.105 37.027,24.4 37.393,24.4ZM38.051,22.313L41.65,22.313L41.65,23.082L38.051,23.082Z" style="fill:white;fill-rule:nonzero;"/>
        <path d="M61.872,44.461L54.827,35.94C55.04,35.764 55.07,35.45 54.894,35.237L50.928,30.44C50.749,30.227 50.435,30.197 50.224,30.374L46.45,25.809C46.093,25.376 45.426,25.062 44.863,25.062L23.694,25.062C23.094,25.062 22.437,25.437 22.132,25.954L20.403,28.883C20.368,28.942 20.241,29.013 20.118,29.013C20.118,29.013 20.115,29.013 20.113,29.013L18.441,28.688C18.147,28.631 17.844,28.667 17.571,28.761C17.504,28.717 17.428,28.683 17.345,28.667C17.199,28.636 13.738,27.971 11.899,30.74C10.438,32.941 9.473,33.989 7.944,33.989C5.196,33.989 3.713,31.696 3.713,29.539C3.713,29.175 3.419,28.879 3.055,28.879C2.69,28.879 2.396,29.175 2.396,29.539C2.396,32.335 4.34,35.308 7.945,35.308C10.261,35.308 11.605,33.57 12.999,31.469C14.03,29.917 15.816,29.845 16.645,29.906C16.607,30.285 16.688,30.696 16.91,31.03L17.827,32.406C17.889,32.497 17.894,32.725 17.838,32.82L16.121,35.722C15.765,36.324 15.93,37.122 16.493,37.54C17.731,38.458 21.88,41.712 23.262,45.024C23.51,45.616 24.138,46.048 24.758,46.048L61.128,46.048C61.753,46.048 61.993,45.681 62.068,45.521C62.14,45.361 62.27,44.939 61.872,44.461ZM17.278,36.48C17.252,36.46 17.243,36.41 17.254,36.392L18.971,33.49C19.288,32.954 19.269,32.189 18.923,31.673L18.006,30.298C17.94,30.198 17.93,30.045 17.92,30.036C17.942,30.018 18.02,29.981 18.161,29.981C18.171,29.981 18.181,29.981 18.19,29.982L19.862,30.307C20.49,30.429 21.217,30.098 21.538,29.553L23.267,26.624C23.335,26.51 23.563,26.38 23.695,26.38L44.864,26.38C45.03,26.38 45.329,26.52 45.434,26.649L57.931,41.764L22.823,41.764C20.995,39.381 18.502,37.389 17.278,36.48ZM24.756,44.729C24.675,44.729 24.523,44.624 24.478,44.516C24.23,43.92 23.904,43.334 23.533,42.764L58.759,42.764L60.384,44.729Z" style="fill:white;fill-rule:nonzero;"/>
        <path d="M41.649,29.208L25.415,29.208C24.87,29.208 24.426,29.652 24.426,30.197L24.426,33.988C24.426,34.534 24.87,34.977 25.415,34.977L41.649,34.977C42.194,34.977 42.637,34.534 42.637,33.988L42.637,30.197C42.638,29.652 42.194,29.208 41.649,29.208ZM26.84,34.316C26.925,34.095 27.152,33.933 27.425,33.933L30.237,33.933C30.51,33.933 30.737,34.095 30.822,34.316ZM41.978,33.987C41.978,34.17 41.831,34.316 41.649,34.316L31.593,34.316C31.5,33.677 30.931,33.183 30.237,33.183L27.425,33.183C26.732,33.183 26.162,33.677 26.07,34.316L25.416,34.316C25.234,34.316 25.087,34.17 25.087,33.987L25.087,30.196C25.087,30.014 25.235,29.867 25.416,29.867L41.65,29.867C41.832,29.867 41.979,30.014 41.979,30.196L41.979,33.987Z" style="fill:white;fill-rule:nonzero;"/>
    </g>
</svg>
